<svg width="20" height="20" viewBox="0 0 20 20" fill="none" xmlns="http://www.w3.org/2000/svg">
<path d="M4.16667 17.5C3.93056 17.5 3.73264 17.4201 3.57292 17.2604C3.4132 17.1007 3.33334 16.9028 3.33334 16.6667C3.33334 16.4306 3.4132 16.2326 3.57292 16.0729C3.73264 15.9132 3.93056 15.8333 4.16667 15.8333H15.8333C16.0694 15.8333 16.2674 15.9132 16.4271 16.0729C16.5868 16.2326 16.6667 16.4306 16.6667 16.6667C16.6667 16.9028 16.5868 17.1007 16.4271 17.2604C16.2674 17.4201 16.0694 17.5 15.8333 17.5H4.16667ZM10 13.8125C9.88889 13.8125 9.78472 13.7951 9.6875 13.7604C9.59028 13.7257 9.5 13.6667 9.41667 13.5833L6.41667 10.5833C6.26389 10.4306 6.1875 10.2361 6.1875 10C6.1875 9.76389 6.26389 9.56944 6.41667 9.41667C6.56945 9.26389 6.76389 9.1875 7 9.1875C7.23611 9.1875 7.43056 9.26389 7.58334 9.41667L9.16667 11V3.33333C9.16667 3.09722 9.24653 2.89931 9.40625 2.73958C9.56597 2.57986 9.76389 2.5 10 2.5C10.2361 2.5 10.434 2.57986 10.5938 2.73958C10.7535 2.89931 10.8333 3.09722 10.8333 3.33333V11L12.4167 9.41667C12.5694 9.26389 12.7639 9.1875 13 9.1875C13.2361 9.1875 13.4306 9.26389 13.5833 9.41667C13.7361 9.56944 13.8125 9.76389 13.8125 10C13.8125 10.2361 13.7361 10.4306 13.5833 10.5833L10.5833 13.5833C10.5 13.6667 10.4097 13.7257 10.3125 13.7604C10.2153 13.7951 10.1111 13.8125 10 13.8125Z" fill="#313131"/>
</svg>
